{"accessors":[{"bufferView":0,"byteOffset":0,"componentType":5126,"count":2056,"max":[7.29454755783081,9.57397174835205,13.0216884613037],"min":[-7.29134607315063,-11.0095558166504,2.47495269775391],"normalized":false,"type":"VEC3"},{"bufferView":1,"byteOffset":0,"componentType":5123,"count":12144,"max":[2055],"min":[0],"normalized":false,"type":"SCALAR"}],"asset":{"generator":"Godot Engine v4.3.dev5.official@89f70e98d209563abb4dbc1f8cd5d76c81eb7940","version":"2.0"},"bufferViews":[{"buffer":0,"byteLength":24672,"byteOffset":0,"byteStride":12,"target":34962},{"buffer":0,"byteLength":24288,"byteOffset":24672,"target":34963}],"buffers":[{"byteLength":48960,"uri":"mesh_capture_10.bin"}],"extensionsUsed":["GODOT_single_root"],"materials":[{"extensions":{},"pbrMetallicRoughness":{"baseColorFactor":[0.99999988079071,0.99999988079071,0.99999988079071,1],"metallicFactor":0,"roughnessFactor":1}}],"meshes":[{"extras":{"targetNames":[]},"primitives":[{"attributes":{"POSITION":0},"indices":1,"material":0,"mode":4}]}],"nodes":[{"extensions":{},"mesh":0,"name":"MeshCapture1","translation":[-0.09058559685946,0,-0.14668799936771]}],"scene":0,"scenes":[{"nodes":[0]}]}